<?xml version="1.0" encoding="UTF-8"?>
<svg width="300" height="300" viewBox="0 0 300 300" xmlns="http://www.w3.org/2000/svg">
    <!-- Definitions -->
    <defs>
        <linearGradient id="neuralGradient" x1="0%" y1="100%" x2="100%" y2="0%">
            <stop offset="0%" stop-color="#FF6B00" />
            <stop offset="100%" stop-color="#FF9248" />
        </linearGradient>
        <filter id="glow" x="-50%" y="-50%" width="200%" height="200%">
            <feGaussianBlur stdDeviation="2" result="blur" />
            <feComposite in="SourceGraphic" in2="blur" operator="over" />
        </filter>
    </defs>
    
    <!-- Dark Background Element -->
    <rect x="70" y="70" width="160" height="160" rx="80" fill="#121620" />
    
    <!-- Neural Network Grid -->
    <circle cx="150" cy="90" r="3" fill="#D1D5DB" />
    <circle cx="110" cy="120" r="3" fill="#D1D5DB" />
    <circle cx="190" cy="120" r="3" fill="#D1D5DB" />
    <circle cx="100" cy="160" r="3" fill="#D1D5DB" />
    <circle cx="150" cy="160" r="3" fill="#D1D5DB" />
    <circle cx="200" cy="160" r="3" fill="#D1D5DB" />
    <circle cx="150" cy="200" r="3" fill="#D1D5DB" />
    
    <!-- Connection Lines -->
    <line x1="150" y1="90" x2="110" y2="120" stroke="#D1D5DB" stroke-width="1" opacity="0.3" />
    <line x1="150" y1="90" x2="190" y2="120" stroke="#D1D5DB" stroke-width="1" opacity="0.3" />
    <line x1="110" y1="120" x2="100" y2="160" stroke="#D1D5DB" stroke-width="1" opacity="0.3" />
    <line x1="110" y1="120" x2="150" y2="160" stroke="#D1D5DB" stroke-width="1" opacity="0.3" />
    <line x1="190" y1="120" x2="150" y2="160" stroke="#D1D5DB" stroke-width="1" opacity="0.3" />
    <line x1="190" y1="120" x2="200" y2="160" stroke="#D1D5DB" stroke-width="1" opacity="0.3" />
    <line x1="100" y1="160" x2="150" y2="200" stroke="#D1D5DB" stroke-width="1" opacity="0.3" />
    <line x1="150" y1="160" x2="150" y2="200" stroke="#D1D5DB" stroke-width="1" opacity="0.3" />
    <line x1="200" y1="160" x2="150" y2="200" stroke="#D1D5DB" stroke-width="1" opacity="0.3" />
    
    <!-- Main Circuit/Data Path -->
    <path d="M150 200L150 160L110 120L150 90" stroke="url(#neuralGradient)" stroke-width="4" fill="none" stroke-linecap="round" filter="url(#glow)" />
    
    <!-- Neural Nodes -->
    <circle cx="150" cy="200" r="6" fill="#FF6B00" filter="url(#glow)" />
    <circle cx="150" cy="160" r="6" fill="#FF6B00" filter="url(#glow)" />
    <circle cx="110" cy="120" r="6" fill="#FF6B00" filter="url(#glow)" />
    <circle cx="150" cy="90" r="6" fill="#20C5C6" filter="url(#glow)" />
    
    <!-- Data Pulse Animations -->
    <circle cx="150" cy="180" r="3" fill="#20C5C6" opacity="0.8" filter="url(#glow)">
        <animate attributeName="cy" from="200" to="160" dur="3s" repeatCount="indefinite" />
    </circle>
    
    <circle cx="130" cy="140" r="3" fill="#20C5C6" opacity="0.8" filter="url(#glow)">
        <animate attributeName="cx" from="150" to="110" dur="3s" begin="1s" repeatCount="indefinite" />
        <animate attributeName="cy" from="160" to="120" dur="3s" begin="1s" repeatCount="indefinite" />
    </circle>
    
    <circle cx="130" cy="105" r="3" fill="#20C5C6" opacity="0.8" filter="url(#glow)">
        <animate attributeName="cx" from="110" to="150" dur="3s" begin="2s" repeatCount="indefinite" />
        <animate attributeName="cy" from="120" to="90" dur="3s" begin="2s" repeatCount="indefinite" />
    </circle>
    
    <!-- Company Name -->
    <text x="150" y="235" text-anchor="middle" font-family="'Inter', sans-serif" font-weight="700" font-size="18">
        <tspan fill="#D1D5DB">Velocity</tspan><tspan fill="#FF6B00">QA</tspan>
    </text>
</svg>
